<svg xmlns="http://www.w3.org/2000/svg" width="512" height="512" fill="none" viewBox="0 0 512 512">
    <title>RSSBook</title>
    <path fill="url(#rssbook)"
        d="M446 157c7 9 8 20 5 31l-65 214c-3 10-9 18-18 25s-19 10-29 10H121c-12 0-24-4-35-12-11-9-19-19-23-31-4-11-4-21-1-30C147 75 148 75 204 75h178c12 0 21 4 27 13s8 19 4 31l-64 213c-6 19-12 31-17 37-6 5-16 8-31 8H97c-5 0-8 1-9 3-2 3-2 6-1 10 4 11 15 17 34 17h218c5 0 9-1 13-4 4-2 7-5 8-9l71-233c2-6 8-11 13-7l2 3Zm-251 1 1 5c1 2 2 2 5 2h143c2 0 4 0 6-2l4-5 5-15-1-6-4-2H210l-6 2-4 6-5 15Zm-19 60v6l5 2h143l6-2c2-2 4-4 4-6l5-15v-5c-1-2-3-2-5-2H191c-2 0-4 0-6 2-2 1-4 3-4 5l-5 15Z" />
    <defs>
        <linearGradient id="rssbook" x1="0" y1="512" x2="512" y2="0">
            <stop stop-color="#FF2D31" />
            <stop offset="1" stop-color="#FF9D9F" stop-opacity="1" />
        </linearGradient>
    </defs>
</svg>